<?xml version="1.0" encoding="UTF-8" standalone="no"?>
<!DOCTYPE svg PUBLIC "-//W3C//DTD SVG 1.1//EN" "http://www.w3.org/Graphics/SVG/1.1/DTD/svg11.dtd">
<svg version="1.1" xmlns="http://www.w3.org/2000/svg" xmlns:xlink="http://www.w3.org/1999/xlink" preserveAspectRatio="xMidYMid meet" viewBox="0 0 640 640" width="640" height="640"><defs><path d="M543.43 454.46C543.43 454.46 543.43 454.46 543.43 454.46C566.39 460.08 585.29 468.03 600.01 478.32C603.24 480.04 604.81 481.99 604.81 484.25C604.81 487.92 601.15 491.43 593.74 494.86C585.08 498.91 572.13 506.09 555.02 516.38C539.15 525.82 526.31 532.68 516.6 537.05C514.72 537.75 512.84 538.14 510.96 538.14C508.15 538.14 505.64 537.36 503.66 535.96C501.57 534.47 500.53 532.76 500.53 530.81C500.53 529.09 501.36 527.61 503.03 526.13C505.33 523.32 510.55 520.2 518.9 516.85C524.33 514.74 531.11 511.31 539.25 506.48C549.07 500.55 555.85 496.65 559.61 494.86C567.85 491.74 572.03 489.55 572.03 488.31C572.03 487.99 571.93 487.76 571.72 487.45C567.23 481.52 559.71 477.08 549.38 474.11C540.19 472.16 530.8 470.14 521.4 467.95C510.34 465.46 502.09 461.87 496.77 457.19C496.35 456.8 496.25 456.25 496.25 455.71C496.25 453.99 497.6 452.12 500.21 450.09C502.82 448.07 505.43 447.05 507.83 447.05C509.29 446.74 510.86 446.66 512.32 446.66C516.71 446.66 522.03 447.68 528.4 449.63C533.3 451.11 538.31 452.75 543.43 454.46M113.05 450.02C115.76 451.73 117.12 453.68 117.12 455.94C117.12 457.66 116.28 459.14 114.61 460.39C108.35 465.46 95.62 470.92 76.2 476.69C58.25 482.07 46.24 488.23 39.98 495.25C50.52 500 64.41 505.23 81.52 510.84C108.87 519.97 122.97 524.73 123.91 525.04C127.45 526.29 129.23 528.31 129.23 531.2C129.65 534.71 127.77 537.67 123.7 540.17C119.63 542.66 114.93 543.83 109.71 543.83C107.62 543.83 105.64 543.52 103.76 542.97C101.46 541.26 98.44 539.31 94.47 537.05C69.62 526.91 43.01 517.24 14.72 508.12C11.9 507.26 9.08 506.48 6.26 505.78C2.71 504.53 0.63 502.66 0 500.32C0 494.23 3.55 488.62 10.75 483.39C19.42 478.17 33.72 472.24 53.76 465.46C73.17 458.98 87.16 452.98 95.93 447.52C95.93 447.44 98.12 447.44 102.4 447.44C106.68 447.44 110.23 448.3 113.05 450.02Z" id="gbm1EzJup"></path><path d="M279.75 447.21C275.05 442.14 270.67 438.55 266.7 436.45C262.74 434.34 258.14 433.33 252.82 433.33C250.94 433.33 249.27 433.56 247.91 433.95C244.78 434.76 219.73 441.25 216.6 442.06C214.82 442.53 212.74 442.69 210.44 442.69C206.26 442.69 202.92 441.98 200.42 440.5C197.81 439.1 194.68 436.21 191.02 431.92C190.16 432.35 183.23 435.78 182.36 436.21C187.79 442.06 192.49 445.96 196.24 447.83C200.11 449.78 204.91 450.72 210.86 450.72C213.47 450.72 216.08 450.41 218.58 449.86C221.45 449.08 244.42 442.84 247.29 442.06C249.17 441.52 251.25 441.2 253.45 441.2C257.1 441.2 260.02 441.75 262.32 442.92C264.51 444.01 267.64 446.58 271.61 450.64C272.15 450.41 274.87 449.27 279.75 447.21" id="fHh04kPUw"></path><path d="M491.34 576.43C507.1 646.77 391.97 653.56 344.68 621.97C312.01 600.14 321.19 569.8 368.06 571.67C409.29 573.31 433.62 613.01 491.34 576.43" id="b16o9YkB2Q"></path><path d="M141.65 576.43C125.89 646.77 241.03 653.56 288.31 621.97C320.98 600.14 311.8 569.8 264.93 571.67C223.7 573.31 199.38 613.01 141.65 576.43" id="c3qfaTvCb8"></path><path d="M235.28 470.21C225.99 470.21 218.48 472.32 212.63 476.45C205.85 481.05 203.24 487.6 204.8 496.18C205.74 503.12 209.08 509.21 214.72 514.51C220.46 519.81 227.35 522.46 235.28 522.46C240.19 522.46 245.3 521.45 250.52 519.35C259.81 515.21 264.41 507.26 264.41 495.48C264.41 484.88 261.17 477.78 254.7 474.35C249.48 471.62 243.01 470.21 235.28 470.21ZM224.95 494.94C224.95 490.88 229.33 487.53 234.87 487.53C240.29 487.53 244.78 490.8 244.78 494.94C244.78 499.07 240.29 502.34 234.87 502.34C229.44 502.34 224.95 499.07 224.95 494.94Z" id="aFQ0U6e2"></path><path d="M323.59 565.59C326.52 565.59 329.33 565.2 331.94 564.42C334.55 563.64 336.96 562.71 339.15 561.46C341.34 560.21 343.32 558.81 345.1 557.32C346.87 555.76 348.44 554.28 349.69 552.65C351.05 551.09 352.09 549.6 352.93 548.12C353.76 546.72 354.39 545.55 354.7 544.53C354.6 544.38 354.49 544.14 354.28 543.83C354.07 543.6 353.87 543.36 353.76 543.13C353.55 542.97 353.45 542.9 353.34 542.9C350.84 546.33 348.12 549.14 344.99 551.32C341.86 553.5 338.42 555.06 334.76 556.08C331.01 557.09 326.93 557.56 322.65 557.56C318.9 557.56 315.56 557.17 312.63 556.47C309.61 555.76 307 554.67 304.6 553.35C302.19 551.94 300.11 550.31 298.12 548.43C296.24 546.56 294.47 544.38 292.9 542.04C292.8 542.04 292.7 542.12 292.49 542.27C292.28 542.43 292.07 542.66 291.97 542.9C291.76 543.13 291.76 543.29 291.65 543.44C293.11 546.48 294.89 549.29 297.08 552.02C299.17 554.67 301.57 557.01 304.28 559.04C307 561.07 309.92 562.71 313.26 563.88C316.29 564.97 319.84 565.59 323.59 565.59" id="f7UZViNAmi"></path><path d="M395.93 469.67C386.64 469.67 379.13 471.77 373.28 475.91C366.5 480.51 363.89 487.14 365.45 495.64C366.39 502.58 369.73 508.66 375.37 513.96C381.01 519.27 388 521.92 395.93 521.92C400.84 521.92 405.95 520.9 411.17 518.8C420.46 514.67 425.06 506.71 425.06 494.94C425.16 484.33 421.82 477.31 415.35 473.8C410.13 471.07 403.66 469.67 395.93 469.67ZM382.68 495.79C382.68 491.74 387.06 488.38 392.59 488.38C398.02 488.38 402.51 491.66 402.51 495.79C402.51 499.85 398.02 503.2 392.59 503.2C387.16 503.2 382.68 499.85 382.68 495.79Z" id="c1hkngMLKy"></path><path d="M518.48 306.44C557.63 239.61 645 190.4 639.78 128.25C568.06 23.36 467.65 19.61 424.64 11.27C369 3.55 313.36 -2.15 257.73 3.78C218.16 8.15 166.91 36.61 119.52 39.03C74.32 50.18 63.05 65 50.42 78.02C36.33 100.95 33.09 123.8 39.98 146.73C57.31 187.91 83.93 225.34 92.17 270.18C110.44 294.28 111.69 339.82 153.45 370.39C281.21 324.93 385.6 360.25 483.3 389.97C499.38 384.74 507.62 344.19 518.48 306.44Z" id="byqTWvVOH"></path><linearGradient id="gradientcABW5MLSV" gradientUnits="userSpaceOnUse" x1="36.5" y1="195.63" x2="640.06" y2="195.63"><stop style="stop-color: #fafaed;stop-opacity: 1" offset="3.9699999999999998%"></stop><stop style="stop-color: #fafaed;stop-opacity: 1" offset="41.83%"></stop><stop style="stop-color: #f3f0e1;stop-opacity: 1" offset="48.94%"></stop><stop style="stop-color: #e5ddc7;stop-opacity: 1" offset="61.14000000000001%"></stop><stop style="stop-color: #cfc09f;stop-opacity: 1" offset="76.86%"></stop><stop style="stop-color: #cbbb98;stop-opacity: 1" offset="79.69000000000001%"></stop><stop style="stop-color: #bba786;stop-opacity: 1" offset="100%"></stop></linearGradient><path d="M469.84 386.77C373.91 357.52 274.64 327.27 152.3 370.78C152.25 370.8 152.01 370.88 151.57 371.02C151.25 370.78 151.08 370.65 151.05 370.63C123.8 350.66 113.78 324.85 105.01 302C100.31 289.99 95.93 278.68 89.56 270.18C89.55 270.15 89.47 269.9 89.46 269.87C83.93 240.08 70.15 213.02 56.79 186.97C50.1 173.87 43.11 160.3 37.37 146.57C30.38 123.33 33.93 100.02 47.81 77.32C48.85 76.23 49.79 75.22 50.73 74.2C62.32 62.04 75.37 48.23 117.54 37.86C143.63 36.46 170.57 27.33 196.56 18.52C217.85 11.27 238 4.48 255.95 2.53C308.88 -3.16 361.07 1.36 423.18 9.94C428.19 10.88 433.72 11.81 440.09 12.83C487.37 20.31 575.37 34.12 639.05 127.39C639.06 127.42 639.14 127.67 639.15 127.7C642.39 166.38 610.13 200.07 575.89 235.71C554.7 257.86 532.68 280.79 517.75 306.29C516.08 312.21 514.41 318.38 512.74 324.46C503.76 357.29 496.04 385.68 481.95 390.2C481.94 390.22 481.9 390.29 481.84 390.43C474.64 388.24 470.64 387.01 469.84 386.77ZM470.78 385.29C471.88 385.62 480.73 388.31 481.84 388.64C494.58 383.96 502.51 354.87 510.96 324.15C512.64 318.06 514.31 311.9 516.08 305.82C531.22 280.01 553.24 257 574.54 234.77C608.46 199.37 640.51 165.99 637.38 127.93C574.01 35.6 490.09 22.42 439.88 14.46C433.41 13.45 427.87 12.59 422.86 11.58C360.96 3.08 308.98 -1.44 256.37 4.17C238.73 6.12 218.79 12.91 197.6 20C171.4 28.89 144.36 38.02 118.06 39.42C76.83 49.56 63.99 63.13 52.61 75.14C51.67 76.15 50.73 77.09 49.79 78.1C36.12 100.33 32.67 123.25 39.56 146.1C45.3 159.75 52.19 173.24 58.98 186.35C72.34 212.47 86.22 239.53 91.75 269.48C98.23 278.06 102.61 289.44 107.31 301.45C115.97 323.91 125.89 349.34 152.3 368.99C196.45 353.39 237.68 347.31 276.83 347.31C346.35 347.31 409.19 366.49 470.78 385.29Z" id="brH7XJdrt"></path><path d="M157.1 396.99C203.13 378.74 318.37 333.58 472.66 412.74C477.04 394.18 477.46 375.62 474.01 357.06C469.63 313.15 239.35 259.42 155.85 356.12C155.93 358.85 156.35 372.47 157.1 396.99" id="a10VDdUQ5Y"></path><linearGradient id="gradientg2YSeJpKze" gradientUnits="userSpaceOnUse" x1="155.85" y1="357.36" x2="476.34" y2="357.36"><stop style="stop-color: #fafaed;stop-opacity: 1" offset="0%"></stop><stop style="stop-color: #fafaed;stop-opacity: 1" offset="5.26%"></stop><stop style="stop-color: #fafaed;stop-opacity: 1" offset="38.440000000000005%"></stop><stop style="stop-color: #f5f3e5;stop-opacity: 1" offset="50.96000000000001%"></stop><stop style="stop-color: #ebe4d0;stop-opacity: 1" offset="69.72%"></stop><stop style="stop-color: #dbcfb2;stop-opacity: 1" offset="92.30000000000001%"></stop><stop style="stop-color: #d5c7a7;stop-opacity: 1" offset="99.87%"></stop></linearGradient><path d="M472.45 413.05C406.37 379.13 339.77 364.23 274.43 368.68C220.36 372.34 179.44 388.56 157.41 397.3C157.37 397.31 157.16 397.39 156.79 397.53L156.79 396.99L155.53 356.04C155.6 356 155.63 355.97 155.64 355.96C178.19 329.92 212.32 312.92 257.31 305.59C294.16 299.5 337.16 300.52 378.4 308.39C433.3 318.84 472.86 338.89 474.64 357.06C478.08 375.54 477.67 394.33 473.28 412.82C473.27 412.85 473.2 413.03 473.07 413.36C472.7 413.18 472.49 413.07 472.45 413.05ZM472.34 412.19C476.52 393.94 476.94 375.46 473.49 357.13C471.72 339.51 431.53 319.23 377.87 309.02C336.85 301.22 293.95 300.2 257.2 306.21C212.53 313.54 178.5 330.39 156.16 356.2C156.29 360.21 157.29 392.35 157.41 396.36C179.65 387.55 220.36 371.56 274.12 367.9C281.84 367.43 289.46 367.19 296.98 367.19C355.01 367.19 413.89 382.25 472.34 412.19Z" id="a5RSjkD7X"></path><path d="M92.28 71.16C85.18 97.91 116.91 182.37 106.26 226.66C100.84 203.42 81 157.33 81.84 131.37C72.23 115.77 62.63 96.9 52.09 89.64C42.59 83.17 73.9 44.57 92.28 71.16" id="a2sN33xBbz"></path><linearGradient id="gradienta120nmvaHu" gradientUnits="userSpaceOnUse" x1="50.35" y1="144.33" x2="108.49" y2="144.33"><stop style="stop-color: #e9dccb;stop-opacity: 1" offset="0%"></stop><stop style="stop-color: #f3eddf;stop-opacity: 1" offset="100%"></stop></linearGradient><path d="M164.62 343.02C164.51 342.94 164.51 342.94 164.51 342.86C122.76 306.37 105.53 243.51 91.02 190.56C79.54 148.52 69.73 112.65 50.73 101.34C50.72 101.33 50.64 101.27 50.63 101.26C48.23 98.92 46.87 96.19 46.35 93.31C45.41 88.32 47.08 82.86 50.52 77.79C53.86 72.72 58.98 68.2 65.03 65.08C69.21 62.89 73.9 61.49 78.71 61.02C78.72 61.09 78.8 61.65 78.81 61.72C74.11 62.11 69.62 63.6 65.55 65.62C61.07 70.22 57.72 73.19 54.38 78.1C45.09 91.98 64.41 91.28 72.03 98.85C91.23 110.39 92.8 148.21 104.39 190.4C118.89 243.28 123.59 306.05 165.14 342.4C165.14 342.4 165.14 342.4 165.14 342.4C165.24 342.47 165.24 342.47 165.24 342.55C165.2 342.58 164.99 342.74 164.62 343.02" id="ezBiC3yYk"></path><path d="M163.05 60.24C155.95 86.99 174.11 148.37 163.57 192.74C158.14 169.5 138.31 123.41 139.15 97.44C129.54 81.84 118.06 64.06 111.27 54.86C105.12 46.59 136.85 35.44 163.05 60.24" id="bfgLnpw9J"></path><linearGradient id="gradientewv8VkSw" gradientUnits="userSpaceOnUse" x1="136.36" y1="97.15" x2="168.28" y2="131.94"><stop style="stop-color: #ede2d2;stop-opacity: 1" offset="0%"></stop><stop style="stop-color: #efe7da;stop-opacity: 1" offset="43.18%"></stop><stop style="stop-color: #f0eadf;stop-opacity: 1" offset="100%"></stop></linearGradient><path d="M149.17 50.88C140.08 46.28 136.43 46.52 128.6 47.3C125.37 47.61 122.65 48.39 120.56 49.48C118.48 50.57 117.12 52.13 116.7 54C116.28 56.81 113.78 57.28 117.22 62.43C117.22 62.43 117.22 62.43 117.22 62.43C140.4 85.9 158.04 124.81 162.95 166.23C169.1 218.71 160.96 276.89 207.52 318.06C207.44 318.11 206.86 318.48 206.79 318.53C160.02 277.12 153.13 218.87 146.97 166.3C142.07 124.97 137.58 87.15 114.61 63.83C114.61 63.83 114.61 63.83 114.61 63.83C109.81 58.99 108.35 55.02 109.08 51.9C109.6 49.79 111.07 48.15 113.36 46.91C115.55 45.66 118.48 44.88 121.92 44.57C129.96 43.79 140.5 45.58 149.79 50.34C149.75 50.37 149.54 50.56 149.17 50.88" id="chUDgWA6x"></path><path d="M276.93 13.29C298.44 40.12 258.87 160.84 251.88 236.72C251.25 243.12 175.47 -13.69 276.93 13.29" id="i3vNstF2EO"></path><linearGradient id="gradientcVUuVzUb4" gradientUnits="userSpaceOnUse" x1="224.11" y1="124.08" x2="283.23" y2="124.08"><stop style="stop-color: #ede2d2;stop-opacity: 1" offset="0%"></stop><stop style="stop-color: #eee5d6;stop-opacity: 1" offset="100%"></stop></linearGradient><path d="M267.85 303.71C243.32 255.99 217.02 173.17 212.95 107.81C211.38 82.08 213.15 58.99 219.94 41.84C226.72 24.6 238.52 13.37 256.79 11.35C262.74 10.64 269.42 11.03 276.83 12.44C276.8 12.51 276.55 13.07 276.52 13.14C269.21 11.74 262.42 12.91 256.58 13.61C241.34 16.18 243.11 23.36 233.09 39.5C226.41 56.58 222.65 77.71 225.68 103.45C238.73 167.16 254.7 253.96 268.58 303.48C268.53 303.5 268.29 303.57 267.85 303.71" id="egGpePCd8"></path><path d="M339.25 299.58C338.31 294.43 337.37 289.13 336.33 283.75C320.36 197.81 300.84 92.68 369.31 17.12C369.4 17.16 370.07 17.47 370.15 17.51C342.07 73.42 338.21 179.95 334.87 214.26C333.41 229.08 335.7 260.9 337.27 283.59C338.21 288.9 339.25 294.2 340.19 299.43C340.13 299.44 339.82 299.49 339.25 299.58" id="b4GJ3hr6Ta"></path><path d="M413.57 310.65C415.97 266.13 422.34 214.03 428.08 168.95C442.49 112.03 481.22 85.12 491.34 27.57C491.36 27.5 491.53 26.93 491.55 26.86C454.6 71.86 434.03 120.53 423.28 169.11C412.63 217.7 411.8 266.2 414.62 310.73C414.55 310.73 414.2 310.7 413.57 310.65" id="aqd3LyDE4"></path><linearGradient id="gradienteyI4WY29z" gradientUnits="userSpaceOnUse" x1="452.86" y1="121.12" x2="451.33" y2="179.51"><stop style="stop-color: #bba78b;stop-opacity: 1" offset="0%"></stop><stop style="stop-color: #c8bba1;stop-opacity: 1" offset="100%"></stop></linearGradient><path d="M592.7 95.1C561.9 166.54 524.95 236.33 487.69 306.99C488.63 213.41 555.85 100.87 592.7 95.1" id="cpYpKTfpP"></path><linearGradient id="gradientc1tuF8IrVC" gradientUnits="userSpaceOnUse" x1="487.7" y1="201.03" x2="592.67" y2="201.03"><stop style="stop-color: #beaf9a;stop-opacity: 1" offset="0%"></stop><stop style="stop-color: #c0b29e;stop-opacity: 1" offset="30.25%"></stop><stop style="stop-color: #c3b6a2;stop-opacity: 1" offset="100%"></stop></linearGradient><path d="M470.05 338.5C486.33 325.78 487.48 306.29 488.94 283.67C490.19 262.77 491.65 239.22 505.33 215.9C505.64 215.04 506.27 213.56 507 211.53C516.08 187.91 552.41 92.92 594.79 94.63C594.78 94.7 594.69 95.27 594.68 95.34C561.38 94.4 519.11 188.37 509.09 211.77C508.36 213.72 508.15 214.97 507.73 215.9C507.73 215.91 507.73 215.97 507.73 215.98C495.83 239.14 495.1 262.77 491.13 283.59C489.77 306.29 487.17 325.94 470.67 338.81C470.63 338.79 470.42 338.68 470.05 338.5" id="a8niyrCqE"></path></defs><g><g><g><use xlink:href="#gbm1EzJup" opacity="1" fill="#5c4638" fill-opacity="1"></use><g><use xlink:href="#gbm1EzJup" opacity="1" fill-opacity="0" stroke="#000000" stroke-width="1" stroke-opacity="0"></use></g></g><g><use xlink:href="#fHh04kPUw" opacity="1" fill="#5c4638" fill-opacity="1"></use><g><use xlink:href="#fHh04kPUw" opacity="1" fill-opacity="0" stroke="#000000" stroke-width="1" stroke-opacity="0"></use></g></g><g><use xlink:href="#b16o9YkB2Q" opacity="1" fill="#5c4638" fill-opacity="1"></use><g><use xlink:href="#b16o9YkB2Q" opacity="1" fill-opacity="0" stroke="#000000" stroke-width="1" stroke-opacity="0"></use></g></g><g><use xlink:href="#c3qfaTvCb8" opacity="1" fill="#5c4638" fill-opacity="1"></use><g><use xlink:href="#c3qfaTvCb8" opacity="1" fill-opacity="0" stroke="#000000" stroke-width="1" stroke-opacity="0"></use></g></g><g><use xlink:href="#aFQ0U6e2" opacity="1" fill="#5c4638" fill-opacity="1"></use><g><use xlink:href="#aFQ0U6e2" opacity="1" fill-opacity="0" stroke="#000000" stroke-width="1" stroke-opacity="0"></use></g></g><g><use xlink:href="#f7UZViNAmi" opacity="1" fill="#5c4638" fill-opacity="1"></use><g><use xlink:href="#f7UZViNAmi" opacity="1" fill-opacity="0" stroke="#000000" stroke-width="1" stroke-opacity="0"></use></g></g><g><use xlink:href="#c1hkngMLKy" opacity="1" fill="#5c4638" fill-opacity="1"></use><g><use xlink:href="#c1hkngMLKy" opacity="1" fill-opacity="0" stroke="#000000" stroke-width="1" stroke-opacity="0"></use></g></g><g><use xlink:href="#byqTWvVOH" opacity="1" fill="url(#gradientcABW5MLSV)"></use><g><use xlink:href="#byqTWvVOH" opacity="1" fill-opacity="0" stroke="#000000" stroke-width="1" stroke-opacity="0"></use></g></g><g><use xlink:href="#brH7XJdrt" opacity="1" fill="#c9bda9" fill-opacity="1"></use><g><use xlink:href="#brH7XJdrt" opacity="1" fill-opacity="0" stroke="#000000" stroke-width="1" stroke-opacity="0"></use></g></g><g><use xlink:href="#a10VDdUQ5Y" opacity="1" fill="url(#gradientg2YSeJpKze)"></use><g><use xlink:href="#a10VDdUQ5Y" opacity="1" fill-opacity="0" stroke="#000000" stroke-width="1" stroke-opacity="0"></use></g></g><g><use xlink:href="#a5RSjkD7X" opacity="1" fill="#c9bda9" fill-opacity="1"></use><g><use xlink:href="#a5RSjkD7X" opacity="1" fill-opacity="0" stroke="#000000" stroke-width="1" stroke-opacity="0"></use></g></g><g><use xlink:href="#a2sN33xBbz" opacity="1" fill="url(#gradienta120nmvaHu)"></use><g><use xlink:href="#a2sN33xBbz" opacity="1" fill-opacity="0" stroke="#000000" stroke-width="1" stroke-opacity="0"></use></g></g><g><use xlink:href="#ezBiC3yYk" opacity="1" fill="#aa9775" fill-opacity="1"></use><g><use xlink:href="#ezBiC3yYk" opacity="1" fill-opacity="0" stroke="#000000" stroke-width="1" stroke-opacity="0"></use></g></g><g><use xlink:href="#bfgLnpw9J" opacity="1" fill="url(#gradientewv8VkSw)"></use><g><use xlink:href="#bfgLnpw9J" opacity="1" fill-opacity="0" stroke="#000000" stroke-width="1" stroke-opacity="0"></use></g></g><g><use xlink:href="#chUDgWA6x" opacity="1" fill="#aa9775" fill-opacity="1"></use><g><use xlink:href="#chUDgWA6x" opacity="1" fill-opacity="0" stroke="#000000" stroke-width="1" stroke-opacity="0"></use></g></g><g><use xlink:href="#i3vNstF2EO" opacity="1" fill="url(#gradientcVUuVzUb4)"></use><g><use xlink:href="#i3vNstF2EO" opacity="1" fill-opacity="0" stroke="#000000" stroke-width="1" stroke-opacity="0"></use></g></g><g><use xlink:href="#egGpePCd8" opacity="1" fill="#b6a686" fill-opacity="1"></use><g><use xlink:href="#egGpePCd8" opacity="1" fill-opacity="0" stroke="#000000" stroke-width="1" stroke-opacity="0"></use></g></g><g><use xlink:href="#b4GJ3hr6Ta" opacity="1" fill="#ccbd9d" fill-opacity="1"></use><g><use xlink:href="#b4GJ3hr6Ta" opacity="1" fill-opacity="0" stroke="#000000" stroke-width="1" stroke-opacity="0"></use></g></g><g><use xlink:href="#aqd3LyDE4" opacity="1" fill="url(#gradienteyI4WY29z)"></use><g><use xlink:href="#aqd3LyDE4" opacity="1" fill-opacity="0" stroke="#000000" stroke-width="1" stroke-opacity="0"></use></g></g><g><use xlink:href="#cpYpKTfpP" opacity="1" fill="url(#gradientc1tuF8IrVC)"></use><g><use xlink:href="#cpYpKTfpP" opacity="1" fill-opacity="0" stroke="#000000" stroke-width="1" stroke-opacity="0"></use></g></g><g><use xlink:href="#a8niyrCqE" opacity="1" fill="#aa9775" fill-opacity="1"></use><g><use xlink:href="#a8niyrCqE" opacity="1" fill-opacity="0" stroke="#000000" stroke-width="1" stroke-opacity="0"></use></g></g></g></g></svg>