<?xml version="1.0" encoding="UTF-8" standalone="no"?>
<!DOCTYPE svg PUBLIC "-//W3C//DTD SVG 1.1//EN" "http://www.w3.org/Graphics/SVG/1.1/DTD/svg11.dtd">
<svg version="1.1" xmlns="http://www.w3.org/2000/svg" xmlns:xlink="http://www.w3.org/1999/xlink" preserveAspectRatio="xMidYMid meet" viewBox="0 0 640 640" width="640" height="640"><defs><path d="M112.98 160C138.95 160 160 181.05 160 207.02C160 293.62 160 504.96 160 591.2C160 618.15 138.15 640 111.2 640C88.96 640 69.26 640 46.58 640C20.85 640 0 619.15 0 593.42C0 506.74 0 293.97 0 207.46C0 181.25 21.25 160 47.46 160C69.97 160 90.38 160 112.98 160Z" id="cGRz9TRNC"></path><path d="M351.62 0C379.31 0 401.76 22.45 401.76 50.13C401.76 168.11 401.76 471.89 401.76 589.87C401.76 617.55 379.31 640 351.62 640C329.3 640 308.54 640 285.24 640C260.26 640 240 619.74 240 594.76C240 475.81 240 167.39 240 49.24C240 22.05 262.05 0 289.24 0C311.75 0 329.3 0 351.62 0Z" id="a1wfaIxLTz"></path><path d="M584.98 265.6C615.36 265.6 640 290.23 640 320.62C640 384.5 640 523.95 640 588.53C640 616.96 616.96 640 588.53 640C566.15 640 551.52 640 529.4 640C500.24 640 476.6 616.36 476.6 587.2C476.6 522.88 476.6 383.43 476.6 319.29C476.6 289.64 500.64 265.6 530.29 265.6C552.23 265.6 563.3 265.6 584.98 265.6Z" id="c15euVjZ7"></path></defs><g><g><g><use xlink:href="#cGRz9TRNC" opacity="1" fill="#feca32" fill-opacity="1"></use></g><g><use xlink:href="#a1wfaIxLTz" opacity="1" fill="#1f8bcc" fill-opacity="1"></use></g><g><use xlink:href="#c15euVjZ7" opacity="1" fill="#b2331d" fill-opacity="1"></use></g></g></g></svg>