<?xml version="1.0" encoding="UTF-8" standalone="no"?>
<!DOCTYPE svg PUBLIC "-//W3C//DTD SVG 1.1//EN" "http://www.w3.org/Graphics/SVG/1.1/DTD/svg11.dtd">
<svg version="1.1" xmlns="http://www.w3.org/2000/svg" xmlns:xlink="http://www.w3.org/1999/xlink" preserveAspectRatio="xMidYMid meet" viewBox="0 0 640 640" width="640" height="640"><defs><path d="M523.2 636.22C522.54 638.72 519.92 639.98 515.36 639.98C506.63 639.98 436.78 639.98 428.05 639.98C422.81 639.98 418.26 637.79 414.33 633.39C404.71 621.68 356.66 563.1 270.16 457.66L229.96 494.31C229.96 576.08 229.96 621.51 229.96 630.6C229.96 636.87 226.68 640 220.15 640C213.38 640 159.25 640 152.48 640C145.93 640 142.67 636.87 142.67 630.6C142.67 568.48 142.67 71.5 142.67 9.38C142.67 3.13 145.93 0 152.48 0C159.25 0 213.39 0 220.16 0C226.69 0 229.97 3.14 229.97 9.38C229.97 34.88 229.97 162.38 229.97 391.88C333.54 291.51 391.07 235.75 402.58 224.6C407.15 220.23 411.73 218.02 416.31 218.02C425.33 218.02 497.52 218.02 506.55 218.02C510.46 218.02 513.07 219.61 514.39 222.71C515.71 226.48 515.38 229.29 513.4 231.18C501.24 242.45 440.43 298.83 330.97 400.31C445.13 536.21 508.55 611.71 521.23 626.81C523.84 629.32 524.5 632.45 523.21 636.22" id="a9rysDLoUT"></path></defs><g><g><g><use xlink:href="#a9rysDLoUT" opacity="1" fill="#20beff" fill-opacity="1"></use><g><use xlink:href="#a9rysDLoUT" opacity="1" fill-opacity="0" stroke="#000000" stroke-width="1" stroke-opacity="0"></use></g></g></g></g></svg>