<?xml version="1.0" encoding="UTF-8" standalone="no"?>
<!DOCTYPE svg PUBLIC "-//W3C//DTD SVG 1.1//EN" "http://www.w3.org/Graphics/SVG/1.1/DTD/svg11.dtd">
<svg version="1.1" xmlns="http://www.w3.org/2000/svg" xmlns:xlink="http://www.w3.org/1999/xlink" preserveAspectRatio="xMidYMid meet" viewBox="0 0 640 640" width="640" height="640"><defs><path d="M630.96 466.13C629.67 475.99 624.13 484.85 615.47 490.86C614.73 491.36 613.99 491.86 613.25 492.36C570.66 520.93 526.4 547.16 480.67 571.05C434.57 595.1 386.99 616.99 338.13 636.2C337.39 636.53 336.65 636.7 336.1 637.03C335.91 637.2 335.54 637.2 335.36 637.37C325.77 640.88 315.07 640.88 305.3 637.37C304.38 637.03 303.46 636.7 302.54 636.2C302.54 636.2 302.54 636.2 302.35 636.2C253.48 616.82 205.72 595.1 159.62 570.88C113.71 546.99 69.45 520.6 26.85 492.2C26.12 491.69 25.38 491.36 24.64 490.69C15.97 484.68 10.44 475.82 9.15 465.97C-3.02 369.74 -3.02 272.68 8.97 176.46C9.15 175.12 9.34 173.78 9.52 172.45C11 164.26 15.61 156.74 22.43 151.23C22.43 151.23 22.61 151.06 22.61 151.06C24.27 149.89 26.12 148.72 27.78 147.56C113.71 90.09 206.65 41.47 304.56 2.88C305.12 2.55 305.85 2.38 306.41 2.22C314.89 -0.62 324.29 -0.79 332.78 2.05C332.96 2.05 333.15 2.05 333.33 2.22C334.25 2.55 335.36 3.05 336.28 3.38C385.33 22.76 433.09 44.48 479.38 68.7C525.29 92.76 569.73 119.16 612.52 147.72C613.99 148.72 615.47 149.56 616.94 150.73C617.13 150.73 617.13 150.9 617.31 150.9C624.32 156.41 628.93 163.93 630.4 172.28C630.59 173.62 630.77 174.95 630.96 176.29C637.23 224.4 640.18 272.51 639.99 320.79C639.99 320.79 639.99 320.79 639.99 320.79C638.02 385.5 635.01 433.95 630.96 466.13Z" id="a14NJKsuq"></path><linearGradient id="gradientcaU9NHwMs" gradientUnits="userSpaceOnUse" x1="320.1" y1="639.93" x2="320.1" y2="0.09"><stop style="stop-color: #1ba94c;stop-opacity: 1" offset="0%"></stop><stop style="stop-color: #32c766;stop-opacity: 1" offset="100%"></stop></linearGradient><path d="M448.03 443.75C448.03 289.09 448.03 203.16 448.03 185.98C448.03 181.97 444.53 178.8 440.1 178.8C440.1 178.8 440.1 178.8 440.1 178.8C434.18 178.8 386.83 178.8 380.91 178.8C376.48 178.8 372.98 181.97 372.98 185.98C372.98 185.98 372.98 185.98 372.98 185.98C372.98 192.63 372.98 225.87 372.98 285.71L267.31 285.71L267.31 196.34C274.28 196.34 278.16 196.34 278.93 196.34C283.54 196.34 287.23 193 287.23 188.82C287.23 186.65 286.31 184.81 284.65 183.31C279.71 179.16 240.17 146.02 235.23 141.88C232.09 139.2 227.11 139.2 223.98 141.88C219.06 146.02 179.67 179.16 174.74 183.31C171.43 186.15 171.24 190.82 174.38 193.83C175.85 195.33 178.06 196.17 180.46 196.17C181.24 196.17 185.11 196.17 192.08 196.17C192.08 350.73 192.08 436.6 192.08 453.77C192.08 457.78 195.58 460.96 200.01 460.96C205.93 460.96 253.28 460.96 259.2 460.96C263.63 460.96 267.13 457.78 267.13 453.77C267.13 447.12 267.13 413.88 267.13 354.04L372.79 354.04L372.79 443.41C365.82 443.41 361.95 443.41 361.18 443.41C356.57 443.41 352.88 446.76 352.88 450.93C352.88 453.1 353.8 454.94 355.46 456.45C360.38 460.59 399.77 493.73 404.69 497.88C407.83 500.55 412.81 500.55 415.94 497.88C420.87 493.73 460.25 460.59 465.18 456.45C468.5 453.61 468.68 448.93 465.55 445.92C464.07 444.58 461.86 443.75 459.65 443.75C458.1 443.75 454.22 443.75 448.03 443.75Z" id="ctRimRdtM"></path></defs><g><g><g><use xlink:href="#a14NJKsuq" opacity="1" fill="url(#gradientcaU9NHwMs)"></use><g><use xlink:href="#a14NJKsuq" opacity="1" fill-opacity="0" stroke="#000000" stroke-width="1" stroke-opacity="0"></use></g></g><g><use xlink:href="#ctRimRdtM" opacity="1" fill="#ffffff" fill-opacity="1"></use><g><use xlink:href="#ctRimRdtM" opacity="1" fill-opacity="0" stroke="#000000" stroke-width="1" stroke-opacity="0"></use></g></g></g></g></svg>