<?xml version="1.0" encoding="utf-8"?>
<svg id="master-artboard" viewBox="0 0 1400 980" xmlns="http://www.w3.org/2000/svg" width="1400px" height="980px" version="1.1" style="shape-rendering:geometricPrecision; text-rendering:geometricPrecision; image-rendering:optimizeQuality; fill-rule:evenodd; clip-rule:evenodd"><rect id="ee-background" x="0" y="0" width="1400" height="980" style="fill: white; fill-opacity: 0; pointer-events: none;"/>
 
 <metadata id="CorelCorpID_0Corel-Layer"/>
<g transform="matrix(10.494830131530762, 0, 0, 13.47371555291819, -1.2201050519943237, 0.47302665378042213)"><g id="svgGroup" stroke-linecap="round" fill-rule="evenodd" font-size="9pt" stroke="#000" stroke-width="0.25mm" fill="none" style="stroke:#000;stroke-width:0.25mm;fill:none"><path d="M 75.049 43.115 L 76.855 49.609 Q 73.633 53.906 70.215 57.861 A 69.61 69.61 0 0 1 65.676 62.653 A 58.58 58.58 0 0 1 63.257 64.844 A 40.062 40.062 0 0 1 59.267 67.863 A 31.821 31.821 0 0 1 56.152 69.678 A 17.208 17.208 0 0 1 52.379 71.088 A 14.164 14.164 0 0 1 49.072 71.484 Q 47.288 71.484 45.966 70.985 A 6.099 6.099 0 0 1 45.581 70.825 Q 44.141 70.166 43.262 69.019 Q 42.383 67.871 41.968 66.382 A 11.518 11.518 0 0 1 41.559 63.645 A 13.032 13.032 0 0 1 41.553 63.233 A 22.267 22.267 0 0 1 41.556 62.882 Q 41.565 62.305 41.602 61.426 A 139.897 139.897 0 0 1 41.706 59.319 A 153.223 153.223 0 0 1 41.724 59.009 A 210.603 210.603 0 0 1 41.797 57.819 A 157.673 157.673 0 0 1 41.87 56.738 A 79.146 79.146 0 0 0 41.899 56.325 Q 41.943 55.649 41.943 55.42 L 24.609 56.494 L 16.553 56.592 A 107.048 107.048 0 0 1 14.514 60.779 A 77.975 77.975 0 0 1 12.5 64.453 Q 11.621 65.918 10.645 67.334 A 28.844 28.844 0 0 1 9.546 68.827 A 22.771 22.771 0 0 1 8.691 69.849 Q 7.715 70.947 6.738 71.607 A 4.398 4.398 0 0 1 5.987 72.019 Q 5.493 72.227 5.012 72.26 A 2.637 2.637 0 0 1 4.834 72.266 A 8.068 8.068 0 0 1 3.89 72.214 Q 3.398 72.156 2.985 72.033 A 3.813 3.813 0 0 1 2.441 71.826 A 4.866 4.866 0 0 1 1.66 71.368 A 3.626 3.626 0 0 1 0.977 70.728 A 3.917 3.917 0 0 1 0.22 69.238 A 6.833 6.833 0 0 1 0.045 68.36 A 5.378 5.378 0 0 1 0 67.676 A 9.459 9.459 0 0 1 0.342 65.161 Q 0.684 63.916 1.318 62.793 L 7.764 51.953 A 9.277 9.277 0 0 0 7.96 51.63 Q 8.436 50.816 9.465 48.837 A 218.544 218.544 0 0 0 9.546 48.682 A 142.374 142.374 0 0 1 10.266 47.313 Q 11.42 45.148 13.013 42.31 A 247.729 247.729 0 0 1 15.302 38.324 A 340.569 340.569 0 0 1 17.92 33.936 A 188.053 188.053 0 0 1 23.146 25.81 A 206.955 206.955 0 0 1 23.95 24.634 Q 27.197 19.922 30.835 15.479 A 74.843 74.843 0 0 1 35.929 9.842 A 63.658 63.658 0 0 1 38.306 7.593 Q 42.139 4.151 46.045 2.075 A 18.394 18.394 0 0 1 50.06 0.487 A 14.899 14.899 0 0 1 53.809 0 A 12.217 12.217 0 0 1 58.94 1.16 A 15.838 15.838 0 0 1 60.913 2.246 Q 63.595 3.971 66.089 7.396 A 35.645 35.645 0 0 1 67.578 9.619 Q 67.801 10.064 67.878 10.426 A 1.744 1.744 0 0 1 67.92 10.791 Q 67.92 11.426 67.578 12.061 Q 67.236 12.695 66.675 13.184 Q 66.113 13.672 65.43 13.965 A 3.56 3.56 0 0 1 64.014 14.258 A 4.828 4.828 0 0 1 63.224 14.188 Q 62.651 14.093 61.987 13.867 A 3.903 3.903 0 0 1 60.904 13.283 Q 60.343 12.862 59.814 12.207 A 12.645 12.645 0 0 0 58.491 10.872 Q 57.598 10.103 56.665 9.644 Q 55.029 8.838 53.418 8.838 A 8.914 8.914 0 0 0 50.511 9.343 A 11.806 11.806 0 0 0 48.73 10.132 A 21.288 21.288 0 0 0 46.106 11.825 A 28.309 28.309 0 0 0 43.921 13.648 A 47.122 47.122 0 0 0 40.909 16.692 A 57.866 57.866 0 0 0 39.111 18.775 A 95.809 95.809 0 0 0 34.473 24.902 A 153.62 153.62 0 0 0 30.127 31.494 A 561.14 561.14 0 0 0 28.088 34.79 A 483.08 483.08 0 0 0 26.172 37.94 Q 24.316 41.016 22.778 43.604 A 139.363 139.363 0 0 1 21.676 45.428 Q 21.239 46.139 20.837 46.77 A 69.398 69.398 0 0 1 20.068 47.949 L 29.004 47.949 L 44.092 46.826 A 126.626 126.626 0 0 0 44.33 46.294 Q 44.594 45.699 44.936 44.916 A 425.766 425.766 0 0 0 45.264 44.165 A 917.074 917.074 0 0 0 46.026 42.406 Q 46.428 41.477 46.871 40.448 A 1660.843 1660.843 0 0 0 46.899 40.381 A 539.048 539.048 0 0 1 47.845 38.196 A 679.337 679.337 0 0 1 48.877 35.84 A 1157.73 1157.73 0 0 1 51.05 30.933 A 5820.574 5820.574 0 0 0 53.223 26.05 A 839.158 839.158 0 0 1 54.26 23.724 A 658.994 658.994 0 0 1 55.225 21.582 A 6.732 6.732 0 0 1 55.733 20.433 Q 56.097 19.793 56.574 19.353 A 3.6 3.6 0 0 1 57.104 18.945 Q 58.35 18.164 59.766 18.164 A 5.075 5.075 0 0 1 61.23 18.384 A 4.193 4.193 0 0 1 62.573 19.067 A 3.681 3.681 0 0 1 63.562 20.217 A 4.203 4.203 0 0 1 63.574 20.239 Q 63.965 20.947 64.014 21.924 A 3.517 3.517 0 0 1 63.963 22.47 Q 63.812 23.413 63.208 25.098 Q 62.654 26.642 61.893 28.555 A 172.136 172.136 0 0 1 61.157 30.371 A 321.692 321.692 0 0 1 59.839 33.527 A 411.751 411.751 0 0 1 58.374 36.939 A 660.329 660.329 0 0 0 55.347 44.019 A 309.214 309.214 0 0 0 53.912 47.485 A 267.462 267.462 0 0 0 52.588 50.806 Q 51.318 54.053 50.635 56.494 A 49.059 49.059 0 0 0 50.416 57.357 Q 50.273 57.945 50.122 58.618 A 11.225 11.225 0 0 0 49.894 60.031 A 9.214 9.214 0 0 0 49.854 60.889 A 5.427 5.427 0 0 0 49.902 61.634 Q 49.973 62.143 50.146 62.549 A 1.055 1.055 0 0 0 50.884 63.169 Q 51.118 63.233 51.416 63.233 A 4.625 4.625 0 0 0 52.477 63.099 Q 52.978 62.98 53.537 62.757 A 11.536 11.536 0 0 0 54.565 62.28 Q 56.271 61.393 58.21 59.956 A 39.285 39.285 0 0 0 58.496 59.741 A 52.764 52.764 0 0 0 61.041 57.685 A 66.039 66.039 0 0 0 62.842 56.079 Q 65.088 54.004 67.285 51.782 Q 69.482 49.561 71.484 47.315 A 119.373 119.373 0 0 0 73.376 45.142 A 90.512 90.512 0 0 0 75.049 43.115 Z M 105.371 25.293 A 76.535 76.535 0 0 0 109.329 23.567 Q 111.301 22.637 112.988 21.68 A 47.04 47.04 0 0 0 115.623 20.075 Q 116.815 19.292 117.813 18.512 A 26.027 26.027 0 0 0 118.457 17.993 A 22.987 22.987 0 0 0 119.954 16.637 Q 120.655 15.94 121.192 15.261 A 11.351 11.351 0 0 0 121.777 14.453 A 8.735 8.735 0 0 0 122.393 13.363 Q 122.9 12.28 122.9 11.328 A 1.212 1.212 0 0 0 122.832 10.941 Q 122.717 10.602 122.412 10.205 Q 121.924 9.57 120.923 9.033 Q 120.103 8.593 118.938 8.268 A 15.613 15.613 0 0 0 118.408 8.13 A 12.302 12.302 0 0 0 116.882 7.867 Q 116.101 7.78 115.222 7.766 A 21.233 21.233 0 0 0 114.893 7.764 A 39.194 39.194 0 0 0 108.484 8.269 A 32.885 32.885 0 0 0 104.932 9.058 A 52.396 52.396 0 0 0 99.519 10.895 A 43.218 43.218 0 0 0 96.582 12.207 A 56.55 56.55 0 0 0 92.835 14.227 A 43.511 43.511 0 0 0 89.941 16.089 A 182.242 182.242 0 0 0 87.911 17.537 Q 86.328 18.683 85.107 19.629 A 23.853 23.853 0 0 0 83.966 20.551 A 18.136 18.136 0 0 0 82.983 21.46 Q 82.08 22.363 81.226 23.071 Q 80.371 23.779 79.395 24.219 A 4.736 4.736 0 0 1 78.32 24.548 Q 77.734 24.658 77.051 24.658 Q 75 24.658 73.853 23.682 A 3.188 3.188 0 0 1 72.762 21.691 A 4.671 4.671 0 0 1 72.705 20.947 A 6.145 6.145 0 0 1 73.082 18.885 Q 73.367 18.084 73.867 17.247 A 12.568 12.568 0 0 1 74.365 16.48 A 18.968 18.968 0 0 1 76.201 14.265 Q 77.174 13.248 78.384 12.235 A 33.34 33.34 0 0 1 78.955 11.768 A 40.221 40.221 0 0 1 82.521 9.235 A 52.695 52.695 0 0 1 85.84 7.3 Q 89.795 5.176 94.36 3.565 A 68.163 68.163 0 0 1 103.882 0.977 A 51.282 51.282 0 0 1 113.818 0 A 53.331 53.331 0 0 1 117.75 0.137 Q 120.453 0.337 122.656 0.83 A 26.398 26.398 0 0 1 125.351 1.576 Q 126.682 2.026 127.778 2.587 A 13.549 13.549 0 0 1 128.735 3.125 A 11.913 11.913 0 0 1 130.574 4.51 A 8.821 8.821 0 0 1 132.251 6.592 A 8.59 8.59 0 0 1 133.398 10.938 Q 133.398 13.281 131.836 15.82 Q 130.429 18.107 127.934 20.393 A 32.4 32.4 0 0 1 127.368 20.899 A 34.894 34.894 0 0 1 124.146 23.383 Q 122.375 24.597 120.288 25.757 Q 116.113 28.076 110.889 29.981 A 64.195 64.195 0 0 1 114.482 31.279 Q 116.141 31.939 117.532 32.623 A 29.611 29.611 0 0 1 119.312 33.569 A 28.047 28.047 0 0 1 121.632 35.06 Q 122.735 35.854 123.601 36.671 A 14.259 14.259 0 0 1 124.39 37.476 A 12.778 12.778 0 0 1 125.833 39.391 A 9.526 9.526 0 0 1 126.855 41.675 A 15.851 15.851 0 0 1 127.49 46.143 A 12.81 12.81 0 0 1 126.358 51.347 A 15.884 15.884 0 0 1 125.635 52.783 A 22.208 22.208 0 0 1 122.764 56.718 A 28.326 28.326 0 0 1 120.483 58.96 A 38.789 38.789 0 0 1 116.139 62.255 A 49.309 49.309 0 0 1 112.671 64.331 Q 108.154 66.797 102.832 68.579 A 73.829 73.829 0 0 1 92.704 71.168 A 81.867 81.867 0 0 1 91.602 71.362 Q 85.693 72.363 79.639 72.363 Q 77.49 72.363 75.293 72.119 A 20.036 20.036 0 0 1 72.751 71.677 A 16.459 16.459 0 0 1 71.265 71.24 A 9.962 9.962 0 0 1 69.793 70.601 Q 68.932 70.136 68.286 69.531 A 3.572 3.572 0 0 1 67.149 67.063 A 4.838 4.838 0 0 1 67.139 66.748 A 2.78 2.78 0 0 1 67.148 66.514 A 2.31 2.31 0 0 1 67.163 66.382 A 5.468 5.468 0 0 1 67.185 66.243 Q 67.206 66.119 67.236 65.967 Q 67.371 65.698 67.528 65.349 A 27.943 27.943 0 0 0 67.676 65.015 A 1.609 1.609 0 0 1 67.933 64.614 Q 68.216 64.283 68.727 63.961 A 5.841 5.841 0 0 1 68.799 63.916 A 4.429 4.429 0 0 1 69.427 63.605 Q 70.251 63.267 71.558 63.013 A 15.303 15.303 0 0 1 72.818 62.828 Q 74.091 62.689 75.839 62.657 A 60.016 60.016 0 0 1 76.953 62.647 A 722.418 722.418 0 0 0 81.232 54.696 Q 82.891 51.565 84.342 48.737 A 365.139 365.139 0 0 0 87.036 43.384 Q 90.817 35.705 93.43 30.606 A 462.977 462.977 0 0 1 93.701 30.078 A 116.855 116.855 0 0 1 94.991 27.637 Q 96.844 24.231 98.218 22.363 A 10.483 10.483 0 0 1 99.122 21.281 Q 100.21 20.157 101.273 19.93 A 2.555 2.555 0 0 1 101.807 19.873 A 4.755 4.755 0 0 1 103.32 20.117 A 4.866 4.866 0 0 1 104.208 20.511 A 4.214 4.214 0 0 1 104.614 20.776 A 3.213 3.213 0 0 1 105.518 21.802 A 2.701 2.701 0 0 1 105.859 23.145 A 2.301 2.301 0 0 0 105.591 23.561 A 1.67 1.67 0 0 0 105.42 24.146 A 10.408 10.408 0 0 0 105.383 24.689 A 14.238 14.238 0 0 0 105.371 25.293 Z M 100.555 39.343 A 303.825 303.825 0 0 0 102.686 34.619 Q 106.445 35.84 108.936 37.305 A 27.386 27.386 0 0 1 109.802 37.836 Q 110.718 38.421 111.472 39.015 A 14.13 14.13 0 0 1 112.891 40.283 A 13.872 13.872 0 0 1 113.166 40.576 Q 113.745 41.21 114.174 41.844 A 7.887 7.887 0 0 1 114.966 43.311 A 9.134 9.134 0 0 1 115.361 44.516 A 6.918 6.918 0 0 1 115.576 46.192 A 8.68 8.68 0 0 1 114.973 49.37 A 10.722 10.722 0 0 1 113.501 51.953 Q 112.366 53.449 110.764 54.783 A 24.135 24.135 0 0 1 107.788 56.885 A 32.676 32.676 0 0 1 103.833 58.905 A 43.41 43.41 0 0 1 99.243 60.571 Q 94.336 62.061 88.672 62.549 A 2977.45 2977.45 0 0 1 91.675 56.958 A 404.388 404.388 0 0 0 93.256 53.992 A 494.971 494.971 0 0 0 94.922 50.806 A 291.195 291.195 0 0 0 96.686 47.345 A 375.595 375.595 0 0 0 98.56 43.555 A 220.956 220.956 0 0 0 100.555 39.343 Z" vector-effect="non-scaling-stroke" style="fill: rgb(132, 147, 181);"/></g></g></svg>