<?xml version="1.0" encoding="UTF-8" standalone="no"?>
<!DOCTYPE svg PUBLIC "-//W3C//DTD SVG 1.1//EN" "http://www.w3.org/Graphics/SVG/1.1/DTD/svg11.dtd">
<svg version="1.1" xmlns="http://www.w3.org/2000/svg" xmlns:xlink="http://www.w3.org/1999/xlink" preserveAspectRatio="xMidYMid meet" viewBox="0 0 640 640" width="640" height="640"><defs><path d="M0 0L640 0L581.66 576.04L319.84 640L58.27 576L0 0Z" id="fLRdScULw"></path><path d="M320 591.07L531.71 539.36L581.59 47.08L320 47.08L320 591.07Z" id="fRTmaRfxJ"></path><path d="M140.83 331.37L418.68 331.37L409.36 423L319.9 444.31L230.6 423.03L224.63 364.19L144.17 364.19L155.67 477.61L319.88 517.8L484.29 477.61L506.33 260.73L214.15 260.73L206.81 188.38L513.35 188.38L513.6 188.38L520.78 117.73L119.22 117.73L140.83 331.37Z" id="c1gnsRrSR"></path><path d="M119.22 117.73L140.83 331.37L320 331.37L320 260.73L214.15 260.73L206.81 188.38L320 188.38L320 117.73L119.22 117.73Z" id="aFmRe1h4"></path><path d="M319.9 444.31L230.6 423.03L224.63 364.19L144.17 364.19L155.67 477.61L319.88 517.8L320 517.77L320 444.28L319.9 444.31Z" id="c1kzqqVrdQ"></path></defs><g><g><g><use xlink:href="#fLRdScULw" opacity="1" fill="#e34e26" fill-opacity="1"></use><g><use xlink:href="#fLRdScULw" opacity="1" fill-opacity="0" stroke="#000000" stroke-width="1" stroke-opacity="0"></use></g></g><g><use xlink:href="#fRTmaRfxJ" opacity="1" fill="#ef662a" fill-opacity="1"></use><g><use xlink:href="#fRTmaRfxJ" opacity="1" fill-opacity="0" stroke="#000000" stroke-width="1" stroke-opacity="0"></use></g></g><g><use xlink:href="#c1gnsRrSR" opacity="1" fill="#ffffff" fill-opacity="1"></use><g><use xlink:href="#c1gnsRrSR" opacity="1" fill-opacity="0" stroke="#000000" stroke-width="1" stroke-opacity="0"></use></g></g><g><use xlink:href="#aFmRe1h4" opacity="1" fill="#ebebeb" fill-opacity="1"></use><g><use xlink:href="#aFmRe1h4" opacity="1" fill-opacity="0" stroke="#000000" stroke-width="1" stroke-opacity="0"></use></g></g><g><use xlink:href="#c1kzqqVrdQ" opacity="1" fill="#ebebeb" fill-opacity="1"></use><g><use xlink:href="#c1kzqqVrdQ" opacity="1" fill-opacity="0" stroke="#000000" stroke-width="1" stroke-opacity="0"></use></g></g></g></g></svg>