<?xml version="1.0" encoding="UTF-8" standalone="no"?>
<!DOCTYPE svg PUBLIC "-//W3C//DTD SVG 1.1//EN" "http://www.w3.org/Graphics/SVG/1.1/DTD/svg11.dtd">
<svg version="1.1" xmlns="http://www.w3.org/2000/svg" xmlns:xlink="http://www.w3.org/1999/xlink" preserveAspectRatio="xMidYMid meet" viewBox="0 0 640 640" width="640" height="640"><defs><path d="M165.37 70.83C165.38 75.72 165.44 100.18 165.55 144.2L320.59 144.2L320.59 166.23C190.62 166.23 118.41 166.23 103.97 166.23C103.97 166.23 0 154.38 0 319.17C0 483.97 90.74 478.12 90.74 478.12C94.35 478.12 112.41 478.12 144.9 478.12C144.9 432.24 144.9 406.75 144.9 401.65C144.9 401.65 141.98 310.43 234.19 310.43C249.57 310.43 372.59 310.43 387.97 310.43C387.97 310.43 474.37 311.84 474.37 226.5C474.37 212.39 474.37 99.5 474.37 85.39C474.37 85.39 487.48 0 317.69 0C317.69 0 317.69 0 317.69 0L317.69 0C236.45 37.77 185.68 61.38 165.37 70.83ZM260.1 77.38C260.1 92.89 247.63 105.42 232.2 105.42C216.78 105.42 204.31 92.89 204.31 77.38C204.31 61.87 216.78 49.34 232.2 49.34C232.2 49.34 232.2 49.34 232.2 49.34L232.2 49.34C250.8 57.7 260.1 67.04 260.1 77.38Z" id="a9SWwQa5p"></path><linearGradient id="gradientda1EOq42" gradientUnits="userSpaceOnUse" x1="61.51" y1="57.57" x2="377.97" y2="373.92"><stop style="stop-color: #387eb8;stop-opacity: 1" offset="0%"></stop><stop style="stop-color: #366994;stop-opacity: 1" offset="100%"></stop></linearGradient><path d="M474.63 569.17C474.62 564.28 474.56 539.82 474.45 495.8L319.41 495.8L319.41 473.77C449.38 473.77 521.59 473.77 536.03 473.77C536.03 473.77 640 485.62 640 320.83C640 156.03 549.26 161.88 549.26 161.88C545.65 161.88 527.59 161.88 495.1 161.88C495.1 207.76 495.1 233.25 495.1 238.35C495.1 238.35 498.02 329.57 405.81 329.57C390.43 329.57 267.41 329.57 252.03 329.57C252.03 329.57 165.63 328.16 165.63 413.5C165.63 427.61 165.63 540.5 165.63 554.61C165.63 554.61 152.52 640 322.31 640C322.31 640 322.31 640 322.31 640L322.31 640C403.55 602.23 454.32 578.62 474.63 569.17ZM379.9 562.62C379.9 547.11 392.37 534.58 407.8 534.58C423.22 534.58 435.69 547.11 435.69 562.62C435.69 578.13 423.22 590.66 407.8 590.66C407.8 590.66 407.8 590.66 407.8 590.66L407.8 590.66C389.2 582.3 379.9 572.96 379.9 562.62Z" id="a1sHCltXCd"></path><linearGradient id="gradientb1th4Ps2cw" gradientUnits="userSpaceOnUse" x1="256.18" y1="260.25" x2="596.06" y2="584.67"><stop style="stop-color: #ffe052;stop-opacity: 1" offset="0%"></stop><stop style="stop-color: #ffc331;stop-opacity: 1" offset="100%"></stop></linearGradient></defs><g><g><g><use xlink:href="#a9SWwQa5p" opacity="1" fill="url(#gradientda1EOq42)"></use><g><use xlink:href="#a9SWwQa5p" opacity="1" fill-opacity="0" stroke="#000000" stroke-width="1" stroke-opacity="0"></use></g></g><g><use xlink:href="#a1sHCltXCd" opacity="1" fill="url(#gradientb1th4Ps2cw)"></use><g><use xlink:href="#a1sHCltXCd" opacity="1" fill-opacity="0" stroke="#000000" stroke-width="1" stroke-opacity="0"></use></g></g></g></g></svg>