<?xml version="1.0" encoding="UTF-8" standalone="no"?>
<!DOCTYPE svg PUBLIC "-//W3C//DTD SVG 1.1//EN" "http://www.w3.org/Graphics/SVG/1.1/DTD/svg11.dtd">
<svg version="1.1" xmlns="http://www.w3.org/2000/svg" xmlns:xlink="http://www.w3.org/1999/xlink" preserveAspectRatio="xMidYMid meet" viewBox="0 0 640 640" width="640" height="640"><defs><path d="M364.34 -86.11L364.34 -85.45" id="a6YqEsw6H"></path><path d="M320 0C143.29 0 0 146.89 0 328.1C0 473.06 91.69 596.05 218.84 639.44C234.83 642.47 240.7 632.32 240.7 623.65C240.7 615.83 240.4 589.98 240.27 562.57C151.24 582.41 132.46 523.85 132.46 523.85C117.9 485.93 96.93 475.85 96.93 475.85C67.89 455.48 99.11 455.9 99.11 455.9C131.25 458.21 148.17 489.71 148.17 489.71C176.71 539.87 223.03 525.37 241.29 516.99C244.16 495.79 252.45 481.3 261.61 473.11C190.53 464.82 115.81 436.68 115.81 310.96C115.81 275.14 128.31 245.87 148.78 222.89C145.46 214.63 134.51 181.26 151.88 136.07C151.88 136.07 178.75 127.25 239.91 169.7C265.43 162.43 292.81 158.78 320 158.66C347.2 158.78 374.59 162.43 400.17 169.7C461.25 127.25 488.08 136.07 488.08 136.07C505.5 181.26 494.54 214.63 491.22 222.89C511.74 245.87 524.15 275.14 524.15 310.96C524.15 436.98 449.29 464.73 378.03 472.85C389.51 483.03 399.74 503 399.74 533.61C399.74 577.51 399.37 612.84 399.37 623.65C399.37 632.38 405.13 642.61 421.35 639.39C548.43 595.96 640 473.02 640 328.1C640 146.89 496.73 0 320 0" id="faymOyFBw"></path></defs><g><g><g><use xlink:href="#a6YqEsw6H" opacity="1" fill="#000000" fill-opacity="0"></use><g><use xlink:href="#a6YqEsw6H" opacity="1" fill-opacity="0" stroke="#3a7fc3" stroke-width="10" stroke-opacity="1"></use></g></g><g><use xlink:href="#faymOyFBw" opacity="1" fill="#ffffff" fill-opacity="1"></use><g><use xlink:href="#faymOyFBw" opacity="1" fill-opacity="0" stroke="#000000" stroke-width="1" stroke-opacity="0"></use></g><g></g></g></g></g></svg>