<?xml version="1.0" encoding="UTF-8" standalone="no"?>
<!DOCTYPE svg PUBLIC "-//W3C//DTD SVG 1.1//EN" "http://www.w3.org/Graphics/SVG/1.1/DTD/svg11.dtd">
<svg version="1.1" xmlns="http://www.w3.org/2000/svg" xmlns:xlink="http://www.w3.org/1999/xlink" preserveAspectRatio="xMidYMid meet" viewBox="0 0 640 640" width="640" height="640"><defs><path d="M348.86 6.83C436.76 51.9 524.69 96.9 612.58 142C629.11 150.45 640.17 167.15 640 184.43C640 211.55 640 428.49 640 455.6C640.12 473.6 627.97 490.7 610.53 498.96C522.92 543.78 435.35 588.66 347.75 633.48C329.9 642.74 306.67 642.03 289.38 632.01C263.11 618.19 236.8 604.44 210.53 590.64C205.16 587.74 199.11 585.42 195.32 580.7C198.67 576.6 204.66 576.09 209.53 574.3C220.5 571.14 230.57 566.06 240.64 561.13C243.19 559.55 246.3 560.16 248.74 561.57C271.2 573.26 293.46 585.28 316 596.86C320.8 599.38 325.67 596.03 329.78 593.96C415.76 549.86 501.84 505.93 587.8 461.82C590.98 460.43 592.74 457.37 592.48 454.2C592.54 364.75 592.5 275.28 592.51 185.82C592.88 182.23 590.59 178.93 587.01 177.46C499.7 132.84 412.44 88.15 325.14 43.52C322.05 41.59 317.96 41.58 314.86 43.51C227.56 88.15 140.32 132.88 53.02 177.49C49.46 178.97 47.06 182.21 47.49 185.82C47.5 275.28 47.49 364.75 47.49 454.21C47.18 457.38 49.07 460.38 52.23 461.74C75.53 473.73 98.85 485.63 122.16 497.58C135.29 503.99 151.42 507.8 165.89 502.89C178.65 498.73 187.6 486.91 187.36 474.61C187.48 385.68 187.3 296.73 187.45 207.81C187.13 203.86 191.26 200.6 195.49 200.97C206.68 200.91 217.89 200.84 229.08 201C233.75 200.91 236.97 205.16 236.39 209.13C236.35 298.63 236.51 388.13 236.32 477.62C236.35 501.47 225.55 527.43 201.24 539.1C171.28 553.18 134.26 550.19 104.68 536.69C79.06 525.09 54.61 511.4 29.45 498.97C11.97 490.75 -0.12 473.59 0 455.61C0 428.49 0 211.55 0 184.43C-0.18 166.79 11.32 149.79 28.36 141.46C115.96 96.6 203.54 51.71 291.12 6.83C308.61 -2.26 331.39 -2.3 348.86 6.83Z" id="e1f2CF2BYK"></path><path d="M481.03 210.43C507.65 223.52 522.4 250.99 522.87 277.82C522.13 281.44 517.96 283.44 514.15 283.19C503.07 283.18 491.98 283.33 480.9 283.12C476.19 283.29 473.46 279.35 472.87 275.58C469.69 262.74 461.97 250.02 448.65 243.83C428.21 234.54 404.5 235.01 382.21 235.2C365.94 235.99 348.44 237.26 334.65 245.95C324.06 252.53 320.85 265.81 324.63 276.5C328.19 284.18 337.96 286.66 345.95 288.94C391.99 299.87 440.78 298.78 485.94 313.16C504.64 319.03 522.93 330.42 529.33 348.19C537.71 372 534.04 400.46 515.37 419.57C500.23 435.3 478.18 443.87 456.19 448.52C426.93 454.43 396.57 454.59 366.86 451.96C338.93 449.07 309.85 442.41 288.29 425.13C269.85 410.6 260.84 387.96 261.73 366.11C261.95 362.42 266 359.84 269.89 360.15C281.05 360.07 292.22 360.04 303.38 360.16C307.84 359.87 311.14 363.37 311.37 367.18C313.43 379.42 318.5 392.26 330.25 399.51C352.94 412.79 381.41 411.88 407.38 412.25C428.91 411.39 453.06 411.12 470.63 398.22C479.89 390.85 482.64 378.54 480.13 367.94C477.42 358.99 467.11 354.82 458.25 352.1C412.8 339.05 363.46 343.78 318.45 329.03C300.18 323.17 282.51 312.09 275.49 295.05C265.69 270.94 270.18 241.12 290.81 222.65C310.91 204.28 339.94 197.2 367.54 194.67C405.75 192.44 446.65 193.35 481.03 210.43Z" id="b6k9y0jUp"></path></defs><g><g><g><use xlink:href="#e1f2CF2BYK" opacity="1" fill="#8cc84b" fill-opacity="1"></use><g><use xlink:href="#e1f2CF2BYK" opacity="1" fill-opacity="0" stroke="#000000" stroke-width="1" stroke-opacity="0"></use></g></g><g><use xlink:href="#b6k9y0jUp" opacity="1" fill="#8cc84b" fill-opacity="1"></use><g><use xlink:href="#b6k9y0jUp" opacity="1" fill-opacity="0" stroke="#000000" stroke-width="1" stroke-opacity="0"></use></g></g></g></g></svg>